<?xml version="1.0" standalone="no"?>
<!DOCTYPE svg PUBLIC "-//W3C//DTD SVG 20010904//EN"
 "http://www.w3.org/TR/2001/REC-SVG-20010904/DTD/svg10.dtd">
<svg version="1.0" xmlns="http://www.w3.org/2000/svg"
 width="500.000000pt" height="500.000000pt" viewBox="0 0 500.000000 500.000000"
 preserveAspectRatio="xMidYMid meet">

<g transform="translate(0.000000,500.000000) scale(0.100000,-0.100000)"
fill="#fff" stroke="none">
<path d="M2114 4459 c-75 -23 -149 -86 -194 -164 -31 -53 -42 -59 -75 -35 -29
20 -181 71 -259 85 -144 27 -252 -4 -325 -92 -53 -64 -73 -134 -69 -240 2 -52
8 -97 15 -104 8 -8 11 13 11 88 1 111 24 192 67 233 31 29 31 21 3 -33 -19
-36 -23 -62 -26 -183 -4 -153 7 -251 40 -347 75 -219 332 -617 530 -820 47
-48 65 -73 56 -77 -7 -4 -88 -22 -181 -40 l-167 -33 -10 -36 c-6 -20 -22 -85
-35 -146 -95 -409 -245 -789 -426 -1077 -37 -59 -89 -135 -114 -169 -28 -35
-44 -64 -39 -69 9 -9 126 -39 1099 -280 292 -72 577 -144 635 -159 202 -54
247 -63 267 -51 18 10 207 80 408 151 378 132 765 279 765 290 0 5 -36 80 -79
166 -87 173 -133 285 -179 438 -111 372 -180 772 -198 1153 l-7 143 -58 30
c-32 16 -67 29 -77 29 -11 0 -98 -18 -193 -40 l-174 -40 -19 22 c-29 35 -62
107 -85 183 -19 62 -22 101 -25 325 -3 227 -6 263 -25 326 -88 290 -304 512
-561 579 -80 21 -220 18 -296 -6z m48 -70 c-153 -76 -224 -234 -224 -500 0
-158 10 -233 59 -419 56 -214 89 -305 163 -457 71 -143 79 -166 59 -178 -13
-9 -138 -35 -164 -35 -39 0 -226 200 -353 377 -92 128 -222 349 -286 485 -116
246 -125 422 -29 529 40 44 96 64 158 55 61 -8 198 -53 256 -84 l50 -27 4
-145 c3 -103 10 -165 24 -215 l19 -70 -1 180 c-1 156 2 190 20 252 53 178 150
279 272 282 33 1 31 0 -27 -30z m312 -73 c87 -33 134 -65 204 -137 72 -73 143
-194 179 -304 24 -76 26 -95 33 -355 7 -297 12 -323 71 -444 17 -33 28 -65 25
-71 -5 -13 -130 -45 -172 -45 -22 1 -37 12 -65 48 -42 54 -123 194 -193 332
-153 300 -315 555 -430 678 -71 76 -74 82 -67 114 18 77 97 164 176 192 65 23
165 20 239 -8z m-289 -541 c82 -118 181 -289 294 -507 97 -189 142 -268 173
-307 22 -29 18 -33 -62 -51 -207 -45 -235 -50 -238 -40 -2 6 -37 77 -78 158
-82 164 -117 259 -170 472 -47 192 -74 340 -74 413 l0 59 46 -54 c25 -29 74
-93 109 -143z m1355 -740 c28 -34 -27 -312 -196 -995 -180 -729 -211 -834
-309 -1070 -29 -69 -59 -143 -67 -165 -13 -33 -21 -41 -46 -43 -17 -2 -31 2
-34 10 -8 20 16 104 68 235 79 202 116 321 234 748 21 77 63 226 93 330 124
428 152 547 186 775 12 80 24 155 27 168 5 25 26 29 44 7z m-140 -10 c0 -30
-31 -223 -51 -314 -26 -122 -68 -284 -129 -496 -27 -93 -67 -240 -90 -325
-127 -484 -245 -840 -279 -840 -4 0 -131 25 -282 55 -151 31 -330 67 -399 80
-69 13 -170 33 -225 45 -55 11 -248 50 -428 85 -180 35 -332 67 -337 70 -5 3
30 85 78 183 168 340 244 570 328 982 9 47 22 90 28 97 6 7 128 37 271 67 143
31 438 94 655 141 217 47 438 94 490 105 52 11 149 33 215 49 143 34 155 35
155 16z m144 -667 c3 -29 8 -84 11 -123 3 -38 14 -122 25 -185 54 -333 158
-582 322 -772 51 -59 51 -61 3 -72 -16 -4 -37 -9 -47 -12 -32 -10 -184 227
-241 376 -46 123 -57 155 -81 260 -40 164 -80 539 -62 569 4 6 20 11 36 11 27
0 29 -3 34 -52z m-187 -799 c61 -223 91 -297 168 -412 25 -37 45 -72 45 -77 0
-9 -62 -30 -90 -30 -33 0 -114 164 -154 312 -22 83 -56 245 -56 269 0 11 40
29 55 25 5 -1 20 -40 32 -87z m-2148 -278 c103 -23 363 -79 556 -120 77 -17
194 -42 260 -56 165 -36 330 -70 525 -110 200 -41 262 -55 273 -65 8 -7 -17
-80 -27 -80 -3 0 -74 16 -158 36 -211 49 -625 143 -728 165 -246 52 -826 191
-833 198 -12 12 10 51 30 51 8 0 54 -9 102 -19z"/>
<path d="M2640 2528 c-41 -5 -223 -22 -403 -37 -323 -28 -328 -29 -355 -54
-28 -27 -33 -38 -103 -227 -23 -63 -72 -180 -109 -260 -106 -229 -109 -252
-42 -269 38 -10 361 -27 732 -37 l215 -7 23 26 c23 24 83 189 218 596 61 186
65 221 29 256 -27 28 -66 30 -205 13z m42 -228 c-1 -14 -12 -56 -24 -93 -16
-50 -27 -69 -42 -72 -20 -4 -718 -45 -763 -45 -13 0 -23 6 -23 13 0 17 49 139
60 151 10 10 71 16 460 46 151 11 280 23 285 25 6 2 19 3 30 2 15 -2 19 -8 17
-27z m-82 -282 c0 -18 -42 -141 -53 -155 -14 -19 -817 -19 -816 0 0 6 12 36
27 66 19 39 34 57 53 62 14 3 165 12 335 19 170 7 311 14 313 16 2 2 35 4 73
4 45 0 68 -4 68 -12z"/>
</g>
</svg>
